/* XPM */
static char * eject_xpm[] = {
"12 9 24 1",
" 	c None",
".	c #EEEEF6",
"+	c #E3E3E9",
"@	c #7A7A81",
"#	c #E6E6ED",
"$	c #A8A8A8",
"%	c #181818",
"&	c #595959",
"*	c #515151",
"=	c #070707",
"-	c #3F3F3F",
";	c #141414",
">	c #0F0F0F",
",	c #111111",
"'	c #464646",
")	c #8E8E8E",
"!	c #7A7A7A",
"~	c #878787",
"{	c #747474",
"]	c #4C4C4C",
"^	c #676767",
"/	c #84848A",
"(	c #1F1F1F",
"_	c #040404",
".++++++++++@",
"#$$$$$$$$$$%",
"#$$$$&$$$$$%",
"#$$$*=-$$$$%",
"#$$&;>,'$$$%",
"#$$)!!!~$$$%",
"#$${]]]^$$$%",
"#$$$$$$$$$$%",
"/((((((((((_"};
