/* XPM */
static char * next_xpm[] = {
"12 9 19 1",
" 	c None",
".	c #EFEFF7",
"+	c #E3E3E9",
"@	c #727279",
"#	c #EAEAF2",
"$	c #A8A8A8",
"%	c #0D0D0D",
"&	c #8C8C8C",
"*	c #707070",
"=	c #747474",
"-	c #121212",
";	c #2E2E2E",
">	c #414141",
",	c #000000",
"'	c #101010",
")	c #0C0C0C",
"!	c #8B8B93",
"~	c #1F1F1F",
"{	c #020202",
".++++++++++@",
"#$$$$$$$$$$%",
"#$$&*$$*&$$%",
"#$$=-;*>=$$%",
"#$$=,,')=$$%",
"#$$=-;*>=$$%",
"#$$&*$$*&$$%",
"#$$$$$$$$$$%",
"!~~~~~~~~~~{"};
