/* XPM */
static char * play_pause_xpm[] = {
"12 9 27 1",
" 	c None",
".	c #EEEEF6",
"+	c #E3E3E9",
"@	c #7A7A81",
"#	c #E6E6ED",
"$	c #A8A8A8",
"%	c #8E8E8E",
"&	c #6B6B6B",
"*	c #979797",
"=	c #9F9F9F",
"-	c #7C7C7C",
";	c #181818",
">	c #606060",
",	c #000000",
"'	c #373737",
")	c #9B9B9B",
"!	c #909090",
"~	c #303030",
"{	c #272727",
"]	c #0D0D0D",
"^	c #212121",
"/	c #818181",
"(	c #4C4C4C",
"_	c #676767",
":	c #84848A",
"<	c #1F1F1F",
"[	c #040404",
".++++++++++@",
"#$%&*$=-%%$;",
"#$>,')!~>>$;",
"#$>,,{!~>>$;",
"#$>,,]!~>>$;",
"#$>,^*!~>>$;",
"#$/(%$)_//$;",
"#$$$$$$$$$$;",
":<<<<<<<<<<["};
