/* XPM */
static char * stop_xpm[] = {
"12 9 16 1",
" 	c None",
".	c #EEEEF6",
"+	c #E3E3E9",
"@	c #7A7A81",
"#	c #E6E6ED",
"$	c #A8A8A8",
"%	c #181818",
"&	c #747474",
"*	c #4C4C4C",
"=	c #676767",
"-	c #484848",
";	c #000000",
">	c #303030",
",	c #84848A",
"'	c #1F1F1F",
")	c #040404",
".++++++++++@",
"#$$$$$$$$$$%",
"#$$&***=$$$%",
"#$$-;;;>$$$%",
"#$$-;;;>$$$%",
"#$$-;;;>$$$%",
"#$$&***=$$$%",
"#$$$$$$$$$$%",
",'''''''''')"};
